A German nurse, Helga (Maria Schell) is kidnapped by Yugoslavian partisans. Their doctor has died and they need another one. Helga has medical training, so she's forced to go with them. At first she goes with them unwillingly. She doesn't like them and they don't like her. As the time goes by, she begins to see them as they really are, not anymore as bandits, but as human beings that need her help. And while they are going through mountains and crossing rivers, a new understanding of the people and the land dawn on her. Sometimes they are attacked by German forces. And Helga begins to suspect that maybe things are not so simple as she once thought. She's doesn't know anymore where she belongs.

This subject could have easily led to a maudlin or preachy film, but "Die Letzte Brücke" avoids these traps. "Die Letzte Brücke" manages to convey emotion through a skillful use of images and words - close-ups on Maria Schell's face, on other faces, the mountains, the rivers, the bridges. When partisan commandant Boro (Bernhard Wicki) and Helga are passing by a cemetery, he says to Helga: "Here are buried the German soldiers", and then, with a wide gesture, showing the landscape, mountains and all, he says: "and there are buried our people, my people, our land". As you see, images and words work together, the emotion conveyed by them is deep, but the film is not at all melodramatic.

   General
      Complete name : Die letzte Bruecke.avi
      Format : AVI
      Format/Info : Audio Video Interleave
      File size : 1.36 GiB
      Duration : 1h 38mn
      Overall bit rate : 1 991 Kbps
      Writing application : FairUse Wizard - http://fairusewizard.com
      Writing library : The best and REALLY easy backup tool
   Video #0
      ID : 0
      Format : MPEG-4 Visual
      Format profile : AdvancedSimple@L5
      Format settings, BVOP : Yes
      Format settings, QPel : No
      Format settings, GMC : No warppoints
      Format settings, Matrix : Default (MPEG)
      Muxing mode : Packed bitstream
      Codec ID : XVID
      Codec ID/Hint : XviD
      Duration : 1h 38mn
      Bit rate : 1 789 Kbps
      Width : 688 pixels
      Height : 512 pixels
      Display aspect ratio : 4:3
      Frame rate : 25.000 fps
      Resolution : 24 bits
      Colorimetry : 4:2:0
      Scan type : Progressive
      Bits/(Pixel*Frame) : 0.203
      Stream size : 1.22 GiB (90%)
      Writing library : XviD 1.2.0.dev47 (UTC 2006-11-01)
   Audio #1
      ID : 1
      Format : AC-3
      Format/Info : Audio Coding 3
      Codec ID : 2000
      Duration : 1h 38mn
      Bit rate mode : Constant
      Bit rate : 192 Kbps
      Channel(s) : 2 channels
      Channel positions : L R
      Sampling rate : 48.0 KHz
      Stream size : 135 MiB (10%)
      Alignment : Split accross interleaves
      Interleave, duration : 40 ms (1.00 video frame)
      Interleave, preload duration : 500 ms

IMDB: tt0047172

German audio; English, Spanish, Portuguese srt, multilanguage subpack (German, English, French, Italian, Spanish, Portuguese, Arabic, Japanese, Russian)

Helmut Kautner - Die letzte Bruecke [1954]